<?xml version="1.0" encoding="UTF-8"?>
<svg id="Layer_1" xmlns="http://www.w3.org/2000/svg" viewBox="0 0 30 30">
  <defs>
    <style>
      .cls-1 {
        fill: #fbbf24;
      }
    </style>
  </defs>
  <path class="cls-1" d="M15,5.83c-6.16,0-11.2,3.5-11.2,7.7,0,2.8,2.8,5.32,5.6,6.72,0,2.94-2.8,3.92-2.8,3.92,3.92,0,6.16-1.82,7.14-2.94h1.26c6.16,0,11.2-3.5,11.2-7.7s-5.04-7.7-11.2-7.7ZM10.8,15.63c-.84,0-1.4-.56-1.4-1.4s.56-1.4,1.4-1.4,1.4.56,1.4,1.4-.56,1.4-1.4,1.4ZM15,15.63c-.84,0-1.4-.56-1.4-1.4s.56-1.4,1.4-1.4,1.4.56,1.4,1.4-.56,1.4-1.4,1.4ZM19.2,15.63c-.84,0-1.4-.56-1.4-1.4s.56-1.4,1.4-1.4,1.4.56,1.4,1.4-.56,1.4-1.4,1.4Z"/>
</svg>