<?xml version="1.0" encoding="UTF-8"?>
<svg id="Layer_1" xmlns="http://www.w3.org/2000/svg" viewBox="0 0 30 30">
  <defs>
    <style>
      .cls-1 {
        fill: #fbbf24;
      }
    </style>
  </defs>
  <path class="cls-1" d="M22.77,20.46c-6.3,0-11.34-5.04-11.34-11.34,0-1.96.42-3.78,1.26-5.32-4.76,1.26-8.4,5.74-8.4,11.06,0,6.3,5.04,11.34,11.34,11.34,4.34,0,8.12-2.52,10.08-6.16-.84.28-1.82.42-2.94.42ZM15.63,24.8c-5.46,0-9.94-4.48-9.94-9.94,0-3.5,1.82-6.58,4.62-8.4-.28.84-.28,1.68-.28,2.66,0,7,5.74,12.74,12.74,12.88-1.96,1.68-4.48,2.8-7.14,2.8Z"/>
</svg>