<?xml version="1.0" encoding="UTF-8"?>
<svg id="Layer_1" xmlns="http://www.w3.org/2000/svg" viewBox="0 0 30 30">
  <defs>
    <style>
      .cls-1 {
        fill: #fbbf24;
      }
    </style>
  </defs>
  <path class="cls-1" d="M9.06,3.58h16.8v5.6H9.06V3.58Z"/>
  <path class="cls-1" d="M9.06,11.98h16.8v5.6H9.06v-5.6Z"/>
  <path class="cls-1" d="M9.06,20.38h16.8v5.6H9.06v-5.6Z"/>
  <path class="cls-1" d="M4.86,3.58l-1.26.7.28.98.98-.42v4.34h1.4V3.58h-1.4Z"/>
  <path class="cls-1" d="M6.54,23.04c.42-.28.7-.7.7-1.12,0-.7-.56-1.4-1.82-1.4-.7,0-1.4.14-1.68.42h-.14l.28,1.12.14-.14c.14-.14.56-.28.98-.28s.56.14.56.42c0,.56-.7.56-.84.56h-.56v.98h.56c.42,0,.84.14.84.56,0,.28-.28.56-.84.56s-.98-.28-1.12-.28l-.14-.14v1.26h.14c.28.28.84.42,1.54.42,1.4,0,2.24-.7,2.24-1.68,0-.56-.28-1.12-.84-1.26Z"/>
  <path class="cls-1" d="M3.6,12.54l.42,1.4s.98-.84,1.68-.42c1.54,1.12-2.24,3.36-2.24,3.36v.7h4.2v-1.4h-1.68c.84-.7,1.68-1.68,1.4-2.66-.7-2.66-3.78-.98-3.78-.98Z"/>
</svg>