<?xml version="1.0" encoding="UTF-8"?>
<svg id="Layer_1" xmlns="http://www.w3.org/2000/svg" viewBox="0 0 30 30">
  <defs>
    <style>
      .cls-1 {
        fill: #fbbf24;
      }
    </style>
  </defs>
  <path class="cls-1" d="M5.23,20.43l-1.4,5.74,5.74-1.4,12.88-12.88-4.34-4.34-12.88,12.88ZM5.93,24.77l-.56-.7.56-2.8,2.8,2.8-2.8.7ZM19.09,9.93l-11.34,11.2-.84-.84,11.34-11.2.84.84ZM25.25,4.75c-1.54-1.54-3.64-.7-3.64-.7l-2.1,2.1,4.34,4.34,2.1-2.1c0-.14.84-2.1-.7-3.64ZM22.59,6.01l-.7-.7c.84-.84,1.54-.14,1.54-.14l-.84.84Z"/>
</svg>