<?xml version="1.0" encoding="UTF-8"?>
<svg id="Layer_1" xmlns="http://www.w3.org/2000/svg" viewBox="0 0 30 30">
  <defs>
    <style>
      .cls-1 {
        fill: #fbbf24;
      }
    </style>
  </defs>
  <path class="cls-1" d="M26.2,15l-3.08-2.24,1.54-3.36-3.78-.28-.28-3.78-3.36,1.54-2.24-3.08-2.24,3.08-3.36-1.54-.28,3.78-3.78.28,1.54,3.36-3.08,2.24,3.08,2.24-1.54,3.36,3.78.28.28,3.78,3.36-1.54,2.24,3.08,2.24-3.08,3.36,1.54.28-3.78,3.78-.28-1.54-3.36,3.08-2.24ZM15,22c-3.92,0-7-3.08-7-7s3.08-7,7-7,7,3.08,7,7-3.08,7-7,7Z"/>
</svg>