<?xml version="1.0" encoding="UTF-8"?>
<svg id="Layer_1" xmlns="http://www.w3.org/2000/svg" viewBox="0 0 30 30">
  <defs>
    <style>
      .cls-1 {
        fill: #fbbf24;
      }
    </style>
  </defs>
  <path class="cls-1" d="M24.61,5.34c-1.96-1.96-5.18-1.96-7.14,0l-6.16,6.02c-1.96,2.1-1.96,5.18,0,7.28.14.14.42.28.56.42l2.1-2.1c-.14-.14-.42-.28-.56-.42-.84-.84-.84-2.24,0-3.08l6.16-6.16c.84-.84,2.24-.84,3.08,0,.84.84.84,2.24,0,3.08l-1.82,1.82c.56,1.12.7,2.38.56,3.5l3.22-3.22c2.1-1.96,2.1-5.18,0-7.14Z"/>
  <path class="cls-1" d="M18.03,10.94l-2.1,2.1s.42.28.56.42c.84.84.84,2.24,0,3.08l-6.16,6.16c-.84.84-2.24.84-3.08,0-.84-.84-.84-2.24,0-3.08l1.82-1.82c-.56-1.12-.14-1.82-.56-3.5l-3.22,3.22c-1.96,1.96-1.96,5.18,0,7.14,1.96,1.96,5.18,1.96,7.14,0l6.16-6.16c1.96-1.96,1.96-5.18,0-7.14-.28-.14-.56-.42-.56-.42Z"/>
</svg>