<?xml version="1.0" encoding="UTF-8"?>
<svg id="Layer_1" xmlns="http://www.w3.org/2000/svg" viewBox="0 0 30 30">
  <defs>
    <style>
      .cls-1 {
        fill: #fbbf24;
      }
    </style>
  </defs>
  <path class="cls-1" d="M22,3.8l-9.8,8.54c-.42-.14-.84-.14-1.4-.14-3.92,0-7,3.08-7,7s3.22,7,7,7,7-3.08,7-7c0-.42,0-.84-.14-1.26l1.54-1.54v-2.8h2.8v-2.8h2.8l1.4-1.4V3.8h-4.2ZM20.6,12.2h-2.38l2.38-1.96v1.96ZM24.8,8.84l-.56.56h-2.66l3.22-2.8v2.24ZM14.02,14.44l.98.56,2.8-2.38v3.22l-1.12,1.12-.42.56.14.7c0,.28.14.7.14.98,0,3.08-2.52,5.6-5.6,5.6s-5.6-2.52-5.6-5.6,2.52-5.6,5.6-5.6c.42,0,.7,0,1.12.14l.7.14.56-.42,9.24-8.26h2.24l-10.78,9.24Z"/>
  <path class="cls-1" d="M12.2,19.9c0,1.16-.94,2.1-2.1,2.1s-2.1-.94-2.1-2.1.94-2.1,2.1-2.1,2.1.94,2.1,2.1Z"/>
</svg>