<?xml version="1.0" encoding="UTF-8"?>
<svg id="Layer_1" xmlns="http://www.w3.org/2000/svg" viewBox="0 0 30 30">
  <defs>
    <style>
      .cls-1 {
        fill: #fbbf24;
      }
    </style>
  </defs>
  <path class="cls-1" d="M7.94,11.64c1.26-2.94,4.2-5.04,7.56-5.04,4.2,0,7.56,3.08,8.26,7h2.8c-.7-5.46-5.32-9.8-11.06-9.8-4.2,0-7.84,2.24-9.66,5.74l-1.54-1.54v5.6h5.6l-1.96-1.96Z"/>
  <path class="cls-1" d="M26.7,16.4h-5.74l2.1,1.96c-1.26,2.94-4.2,5.04-7.7,5.04-4.06,0-7.56-3.08-8.26-7h-2.8c.7,5.46,5.46,9.8,11.06,9.8,4.2,0,7.84-2.38,9.8-5.74l1.54,1.54v-5.6Z"/>
</svg>