<?xml version="1.0" encoding="UTF-8"?>
<svg id="Layer_1" xmlns="http://www.w3.org/2000/svg" viewBox="0 0 30 30">
  <defs>
    <style>
      .cls-1 {
        fill: #fbbf24;
      }
    </style>
  </defs>
  <path class="cls-1" d="M26.2,16.4v-2.8l-2.38-.84c-.28-.84-.56-1.68-.98-2.52l1.12-2.24-1.96-1.96-2.24,1.12c-.7-.42-1.54-.84-2.52-.98l-.84-2.38h-2.8l-.84,2.38c-.84.28-1.68.56-2.38.98l-2.24-1.12-2.1,2.1,1.12,2.24c-.42.7-.7,1.54-.98,2.38l-2.38.84v2.8l2.38.84c.28.84.56,1.68.98,2.52l-1.12,2.24,1.96,1.96,2.24-1.12c.7.42,1.54.84,2.52.98l.84,2.38h2.8l.84-2.38c.84-.28,1.68-.56,2.52-.98l2.24,1.12,1.96-1.96-1.12-2.24c.42-.7.84-1.54.98-2.52l2.38-.84ZM15,20.6c-3.08,0-5.6-2.52-5.6-5.6s2.52-5.6,5.6-5.6,5.6,2.52,5.6,5.6-2.52,5.6-5.6,5.6Z"/>
  <path class="cls-1" d="M18.5,15c0,1.93-1.57,3.5-3.5,3.5s-3.5-1.57-3.5-3.5,1.57-3.5,3.5-3.5,3.5,1.57,3.5,3.5Z"/>
</svg>