<?xml version="1.0" encoding="UTF-8"?>
<svg id="Layer_1" xmlns="http://www.w3.org/2000/svg" viewBox="0 0 30 30">
  <defs>
    <style>
      .cls-1 {
        fill: #fbbf24;
      }
    </style>
  </defs>
  <path class="cls-1" d="M26.2,23.4l-4.2,2.8v-1.4h-6.65l2.8-2.8h3.85v-1.4l4.2,2.8Z"/>
  <path class="cls-1" d="M3.8,6.6l4.2-2.8v1.4h6.65l-2.8,2.8h-3.85v1.4l-4.2-2.8Z"/>
  <path class="cls-1" d="M17.44,3.8L3.8,17.44l8.76,8.76,13.64-13.64L17.44,3.8ZM5.75,17.44l11.69-11.69,6.82,6.82-11.69,11.69-6.82-6.82Z"/>
  <path class="cls-1" d="M9.64,17.44l-.98.98,2.93,2.93.98-.98,1.04.97,3.84-3.89c-.62.62-1.48,1.01-2.44,1.01-1.9,0-3.45-1.54-3.45-3.45,0-.95.39-1.81,1.01-2.44l-3.89,3.84.97,1.04Z"/>
  <path class="cls-1" d="M21.33,11.6l-2.93-2.93-.98.98-1.02-.98-3.84,3.89c.62-.62,1.48-1.01,2.44-1.01,1.9,0,3.45,1.54,3.45,3.45,0,.95-.39,1.81-1.01,2.44l3.89-3.84-.98-.98.98-1.02Z"/>
</svg>