<?xml version="1.0" encoding="UTF-8"?>
<svg id="Layer_1" xmlns="http://www.w3.org/2000/svg" viewBox="0 0 30 30">
  <defs>
    <style>
      .cls-1 {
        fill: #fbbf24;
      }
    </style>
  </defs>
  <path class="cls-1" d="M11.22,16.75c-.56,0-1.26-.28-1.26-.84s.7-.42,1.26-1.4c0,0,2.52-6.86-2.52-6.86s-2.52,6.86-2.52,6.86c.56.98,1.26.84,1.26,1.4s-.7.84-1.26.84c-.84.14-1.54,0-2.38.84v7.98h7c.28-2.38.98-7.28,1.54-8.54l.14-.14c-.28-.14-.7-.14-1.26-.14Z"/>
  <path class="cls-1" d="M26.2,16.47c-.98-1.12-1.82-.98-2.8-1.12-.7-.14-1.54-.28-1.54-.98s.84-.42,1.54-1.68c0,0,2.94-8.26-3.08-8.26-6.16.14-3.22,8.4-3.22,8.4.7,1.12,1.54.98,1.54,1.54,0,.7-.84.84-1.54.98-1.26.14-2.38,0-3.5,2.1-.56,1.26-1.4,8.12-1.4,8.12h14v-9.1Z"/>
</svg>