<?xml version="1.0" encoding="UTF-8"?>
<svg id="Layer_1" xmlns="http://www.w3.org/2000/svg" viewBox="0 0 30 30">
  <defs>
    <style>
      .cls-1 {
        fill: #fbbf24;
      }
    </style>
  </defs>
  <path class="cls-1" d="M24.1,9.41H7.13c-.08.02-.17.03-.27.03-.77,0-1.4-.63-1.4-1.4v-.03l17.93-.7v-1.67c0-.06.01-.12.01-.19,0-.91-.74-1.65-1.65-1.65-.07,0-.14,0-.2.01l-15.92,2.59c-1.08.4-1.83,1.43-1.83,2.63v15.07h0c0,1.17.94,2.11,2.1,2.11h18.2c1.16,0,2.1-.94,2.1-2.1v-12.61s0-.04,0-.06c0-1.12-.91-2.03-2.03-2.03-.03,0-.05,0-.07,0h0ZM22,19.21c-1.16,0-2.1-.94-2.1-2.1s.94-2.1,2.1-2.1,2.1.94,2.1,2.1-.94,2.1-2.1,2.1Z"/>
</svg>