<?xml version="1.0" encoding="UTF-8"?>
<svg id="Layer_1" xmlns="http://www.w3.org/2000/svg" viewBox="0 0 30 30">
  <defs>
    <style>
      .cls-1 {
        fill: #fbbf24;
      }
    </style>
  </defs>
  <path class="cls-1" d="M12.41,10.23c-.77-.52-1.34-1.29-1.61-2.23l8.39.03c-.26.91-.84,1.69-1.64,2.22-1.54,1.01-2.55,2.76-2.55,4.74h0s0,0,0,0c0-1.98-1.02-3.72-2.58-4.75h-.01ZM19.44,12.29c-.91.58-1.54,1.56-1.64,2.72.13,1.16.77,2.16,1.72,2.79,1.48,1.12,2.45,2.89,2.48,4.89v.7h1.4v2.8H6.6v-2.8h1.4v-.7c.03-2,.99-3.76,2.51-4.9.92-.61,1.56-1.62,1.69-2.8-.1-1.13-.73-2.11-1.67-2.71-1.53-1.12-2.53-2.93-2.53-4.97v-.7h-1.4v-2.8h16.8v2.8h-1.4v.7c0,2.04-1,3.85-2.55,4.98h-.01ZM16.4,14.99c.09-1.55.9-2.9,2.13-3.75,1.25-.87,2.07-2.31,2.07-3.94v-.7h-11.2v.7c0,1.63.82,3.07,2.1,3.96,1.2.83,2.01,2.18,2.1,3.76-.1,1.58-.92,2.97-2.16,3.87-1.2.85-1.99,2.23-2.04,3.81v.7h11.2v-.71c-.05-1.57-.85-2.95-2.07-3.82-1.21-.88-2.03-2.27-2.13-3.87h0Z"/>
</svg>