<?xml version="1.0" encoding="UTF-8"?>
<svg id="uuid-aafd3341-ceaa-4095-a142-2225b7a9bc88" xmlns="http://www.w3.org/2000/svg" version="1.1" viewBox="0 0 512 512">
  <!-- Generator: Adobe Illustrator 29.7.1, SVG Export Plug-In . SVG Version: 2.1.1 Build 8)  -->
  <path d="M339.1,271.3h-106l-11.9,11.5h108.9c3.6-3.3,6.7-7.2,9-11.5ZM209,272h-37.4c3.1,3.1,7.1,10.2,11.5,11.2,3.6.9,19.4.8,23.4.3,1-.1,1.9,0,2.5-1.1v-10.4h0ZM321.1,291.4l-131.5.7c2.5,2.9,9.9,10.9,13.3,11.5l105.9-.3,12.2-11.8h0ZM405.1,70.1v65.8c-2.2,51.7-14.5,103.8-44.6,146.4-26.4,37.2-63.2,64.9-102.7,87.1-2.7.9-9.2-3.1-11.9-4.5-76.6-39.8-125.2-109.2-137.4-194.6-4.7-33.2-2.5-66.7-3-100.1,52.8-2.3,102.7-21.2,150.4-42.2,47.5,20.5,97,38.8,149.2,42.3h0ZM390.1,84.5c-47-5.4-91.2-21.9-134.7-39.5-42.8,18.7-87.1,34.6-134,39.6,0,29.5-1.3,58.6,2.9,87.8,11.7,81.1,58.9,142.1,130.2,180.3h1.2c37.3-19.8,70.2-46.7,94.3-81.6,19-27.5,30.8-61.6,36.3-94.5,5.1-30.6,3.8-61.2,3.8-92.1h0ZM287.3,136.9h-104.2l72.4-40.1,40.5,24,6.9-12.6-46.9-28.6c-34.8,18.3-68.6,38.4-102.7,58-2.9,3.2,2.6,9.6,2.6,13.6h123.9c.9,0,1.2-.4,1.7-1.1.9-1.2,6.4-12.7,5.8-13.2h0ZM308.2,151.3h47.1c1-2.6,4.2-8.2,4.6-10.6.1-.8.1-1.4-.5-2l-28.4-16.1-9.8,11.8c1.8.8,4.6,1.1,5,3.6-6.2,4-13.4,7.2-18,13.3h0ZM210.4,157.8h-46c-.9,6.2,1.9,10.2,8.2,10.8,5.5.5,28.3.9,32.9-.2,5-1.1,5.3-6.4,4.8-10.6h0ZM278.7,157.8h-47.4c-.3,6.1,1.8,10.2,8.2,10.8,6.4.6,27.7.8,33.5-.4s6.1-5.2,5.7-10.5h0ZM347,157.8h-44.6l.8,9.2c1.1.3,2.3,1,3.4,1.2,4.5.8,32.1,1,35.8-.2,4.9-1.6,4.8-5.8,4.5-10.2h0ZM260,215.2l11.5-14v-23l-1.1-1.1h-30.5l-.7,69c1.7.4,1.2-.3,1.6-.9,3.7-4.7,10.6-15.2,10.6-21v-40.6h8.6v31.6ZM257.9,262.7h29.8l1.1-1.1v-58.6l-11.1,13.7c-.3.5.3.9.3,1.1v39.2h-8.6v-28.7c-1.7-.4-1.2.4-1.7.9-3.4,4-6,8.8-9.8,12.4v21.2ZM202.2,177.2h-30.2l-.4,86.2h31.6v-85.2l-1.1-1.1h0ZM191.7,257.6h-8.6v-74h7.9v72.2c0,.2,1,1,.7,1.8ZM339.4,177.2h-30.2l-1.1,1.1v84.4h31.6l-.4-85.5h0ZM328.3,256.9h-8.6c.3-19-.4-38.1,0-57.2.1-5.3,1.7-10.8,0-16.1h8.6v73.3h0Z"/>
  <g>
    <path d="M11.7,432.8c0-5.2.9-9.8,2.7-14,1.8-4.2,4.3-7.7,7.4-10.7,3.1-3,6.7-5.3,10.9-6.8s8.5-2.4,13.2-2.4,7,.4,9.8,1.1c2.9.7,5.3,1.5,7.4,2.4,2.4,1,4.5,2.2,6.2,3.4l-10.2,18c-1-.8-2.2-1.5-3.4-2.2-1.1-.5-2.4-1-3.9-1.5-1.5-.5-3.2-.7-5.2-.7s-3.9.4-5.5,1.1-3.1,1.7-4.4,2.9c-1.3,1.2-2.2,2.7-3,4.3-.7,1.7-1.1,3.4-1.1,5.3s.4,3.6,1.1,5.3,1.8,3.1,3.1,4.3c1.3,1.2,2.8,2.2,4.6,2.9s3.7,1.1,5.7,1.1,3.9-.3,5.5-.8c1.6-.5,3-1.1,4.1-1.7,1.3-.7,2.4-1.6,3.4-2.5l10.2,18c-1.7,1.4-3.8,2.7-6.2,3.8-2.1.9-4.6,1.7-7.5,2.5s-6.2,1.2-10,1.2-9.7-.8-14-2.5-8-4-11.1-6.9c-3.1-3-5.5-6.6-7.3-10.7s-2.6-8.8-2.6-13.8h0ZM23.9,432.8c0-3.1.5-6,1.6-8.7s2.6-5.1,4.5-7.1c1.9-2,4.3-3.6,7.1-4.8,2.8-1.2,5.9-1.7,9.3-1.7s3.2.1,4.5.3,2.4.5,3.3.8c1.1.3,2,.7,2.8,1.2l1.4-2.3c-1-.4-2.1-.9-3.3-1.3-1.1-.3-2.4-.6-3.8-.9s-3.1-.4-4.9-.4c-3.3,0-6.5.6-9.5,1.7-3,1.2-5.7,2.8-7.9,5-2.3,2.2-4.1,4.8-5.5,7.9s-2.1,6.5-2.1,10.2.7,7.2,2,10.3c1.3,3,3.1,5.6,5.5,7.8,2.3,2.2,5,3.8,8.1,5,3.1,1.2,6.4,1.7,9.9,1.7s3.7-.2,5.2-.5c1.6-.3,2.9-.7,4-1.1,1.2-.4,2.3-1,3.3-1.6l-1.4-2.3c-.8.6-1.8,1.1-2.9,1.5-1,.4-2.1.7-3.5,1-1.4.3-2.9.4-4.8.4-3.6,0-6.8-.6-9.6-1.7s-5.3-2.7-7.2-4.8c-2-2-3.5-4.4-4.6-7.1-1.1-2.7-1.6-5.6-1.6-8.7h0Z"/>
    <path d="M80,400.4h22.3c4.1,0,8,.5,11.5,1.7,3.5,1.1,6.6,2.7,9.2,4.9,2.6,2.1,4.6,4.8,6.1,7.9s2.2,6.7,2.2,10.8-.5,6-1.4,8.3c-.9,2.3-1.9,4.1-3,5.6-1.3,1.7-2.7,3.1-4.4,4.3l12.1,21.3h-24.2l-9.7-16.4v16.4h-20.7v-64.7h0ZM100.1,442.6c2.5,0,5-.3,7.4-.8l9.2,15.5h3l-9.7-16.3c3.5-1.2,6.3-3.1,8.3-5.7s3.1-5.9,3.1-9.9-.5-5.3-1.7-7.5c-1.1-2.1-2.6-3.9-4.5-5.4-1.9-1.5-4.2-2.6-6.7-3.3-2.6-.7-5.4-1.1-8.4-1.1h-10.5v49.2h2.5v-14.7h8ZM92.2,440.3v-29.8h7.9c5.9,0,10.5,1.3,13.8,3.9,3.3,2.6,5,6.3,5,11.1s-1.7,8.5-5,11c-3.3,2.6-7.9,3.8-13.8,3.8h-7.9ZM100.6,432.3h1.1c2.5,0,4.5-.5,6.3-1.7,1.7-1.1,2.6-2.9,2.6-5.5s-.9-4.4-2.6-5.5c-1.7-1.1-3.8-1.7-6.3-1.7h-1.1v14.4h0Z"/>
    <path d="M167.4,400.4h15.5l24.5,64.7h-20.4l-2.1-5.8h-19.6l-2.1,5.8h-20.4l24.5-64.7h0ZM157.3,457.4l1.8-4.9h32l1.8,4.9h2.7l-18.7-49.2h-3.7l-18.7,49.2h2.7ZM175.1,410.5l15.1,39.7h-30.3l15.1-39.7ZM179.5,445.1l-4.4-11.4-4.4,11.4h8.7Z"/>
    <path d="M215.9,445.1c1.4.5,2.9.8,4.5,1.1,1.3.3,2.8.6,4.4.8,1.7.2,3.3.3,5,.3,3,0,4.5-1.1,4.5-3.3s-.5-1.7-1.4-2.6c-.9-.9-2.1-1.8-3.4-2.9-1.4-1.1-2.9-2.2-4.5-3.5s-3.1-2.8-4.5-4.5c-1.4-1.7-2.5-3.6-3.4-5.7-.9-2.1-1.4-4.5-1.4-7.2s.5-5.7,1.7-8c1.1-2.3,2.6-4.3,4.6-5.8,1.9-1.6,4.2-2.7,6.8-3.5,2.6-.8,5.4-1.2,8.4-1.2s3.1,0,4.7.2c1.6.2,2.9.3,4.2.4,1.4.2,2.8.4,4.2.6v18.1c-.5,0-1.1-.1-1.7-.2-.5,0-1.1-.1-1.7-.2-.6,0-1.3-.1-2-.1s-.9,0-1.5,0c-.6,0-1.1.1-1.7.2-.5.1-1,.4-1.4.7-.4.3-.6.8-.6,1.4s.4,1.2,1.3,1.9,1.9,1.7,3.2,2.7c1.3,1,2.6,2.2,4.2,3.6s2.9,2.9,4.2,4.7c1.3,1.7,2.3,3.7,3.2,5.9s1.3,4.7,1.3,7.4-.5,5.5-1.4,8c-.9,2.5-2.3,4.7-4.2,6.5s-4.4,3.3-7.3,4.4c-3,1.1-6.5,1.6-10.6,1.6s-4.7-.1-6.8-.3c-2.1-.2-4-.5-5.6-.8-1.9-.3-3.6-.7-5.1-1.2v-19.4h0ZM224,456.7c.9.2,1.9.4,2.9.5.9.1,1.9.2,2.9.3,1,.1,2,.1,3.1.1,1.8,0,3.6-.2,5.3-.6,1.7-.4,3.2-1.1,4.6-2.1,1.4-1,2.4-2.2,3.2-3.7s1.2-3.4,1.2-5.6-.5-3.7-1.4-5.3c-.9-1.7-2.1-3.3-3.6-4.9s-3-3-4.7-4.5c-1.7-1.4-3.2-2.9-4.7-4.3-1.5-1.5-2.7-2.9-3.6-4.4-.9-1.5-1.4-3-1.4-4.5,0-2.3.7-4.1,2.2-5.4,1.5-1.3,3.9-1.9,7.2-1.9s1,0,1.6,0,1.1,0,1.6.1c.5,0,1,.1,1.6.1v-2.5c-.5,0-.9,0-1.5-.1-.5,0-1-.1-1.5-.1-.5,0-1.1,0-1.7,0-3.5,0-6.4.8-8.6,2.4s-3.4,4.1-3.4,7.4.5,3.5,1.4,5.1,2.1,3.1,3.6,4.7c1.5,1.5,3,3,4.7,4.4,1.7,1.4,3.2,2.9,4.7,4.3,1.5,1.5,2.6,3,3.6,4.5.9,1.6,1.4,3.2,1.4,4.9,0,3.1-1,5.5-3.1,7.1s-5,2.4-8.7,2.4-4.2-.2-6-.5c-1-.1-1.9-.3-2.8-.5v2.5h0Z"/>
    <path d="M268.6,400.4h20.7v22h11.5v-22h20.8v64.7h-20.8v-24h-11.5v24h-20.7v-64.7ZM280.8,457.4v-24.5h28.5v24.5h2.5v-49.2h-2.5v22.3h-28.5v-22.3h-2.5v49.2h2.5Z"/>
    <path d="M385.9,425.1c0,4.5-.8,8.3-2.3,11.4s-3.7,5.7-6.4,7.6c-2.7,1.9-5.8,3.4-9.4,4.3s-7.5,1.4-11.6,1.4v15.4h-20.7v-64.7h20.7c4.1,0,8,.5,11.6,1.4s6.7,2.3,9.4,4.3,4.8,4.5,6.4,7.6c1.6,3.1,2.3,6.9,2.3,11.4h0ZM376.5,425.1c0-2.9-.5-5.4-1.5-7.6-1-2.1-2.4-3.9-4.2-5.2s-4-2.4-6.5-3.1c-2.5-.7-5.2-1-8.1-1h-11v49.2h2.5v-15.4h8.4c2.9,0,5.6-.3,8.1-1,2.5-.7,4.6-1.7,6.5-3.1s3.2-3.1,4.2-5.2c1-2.1,1.5-4.7,1.5-7.6h0ZM373.8,425.1c0,2.8-.5,5.1-1.5,7s-2.3,3.4-3.9,4.5c-1.6,1.1-3.5,1.9-5.6,2.4-2.1.5-4.3.7-6.6.7h-8.4v-29.1h8.4c2.3,0,4.5.2,6.6.7s4,1.3,5.6,2.4c1.6,1.1,2.9,2.6,3.9,4.5,1,1.9,1.5,4.2,1.5,7h0ZM356.3,432.3h.9c2.7,0,4.7-.6,5.9-1.9s1.8-3,1.8-5.3-.6-4-1.8-5.3-3.1-1.9-5.9-1.9h-.9v14.4h0Z"/>
    <path d="M409.5,400.4h15.5l24.5,64.7h-20.4l-2.1-5.8h-19.6l-2.1,5.8h-20.4l24.5-64.7h0ZM399.4,457.4l1.8-4.9h32l1.8,4.9h2.7l-18.7-49.2h-3.7l-18.7,49.2h2.7ZM417.3,410.5l15.1,39.7h-30.3l15.1-39.7ZM421.6,445.1l-4.4-11.4-4.4,11.4h8.7Z"/>
    <path d="M460.9,437.3l-20.1-36.9h23l7.5,13.7,7.4-13.7h23l-20.1,36.9v27.8h-20.7v-27.8h0ZM472.6,457.4v-23.2l14.2-26h-3l-12.4,23-12.5-23h-2.9l14.1,26v23.2h2.6Z"/>
  </g>
</svg>