<?xml version="1.0" encoding="UTF-8"?>
<svg id="uuid-3cce4afa-c56c-4798-b599-0b67e6de4afc" data-name="Layer 1" xmlns="http://www.w3.org/2000/svg" width="512" height="512" viewBox="0 0 512 512">
  <path d="M367.76,352.88h-141.44l-15.82,15.34h145.28c4.76-4.43,8.96-9.54,11.99-15.34ZM194.2,353.84h-49.86c4.09,4.14,9.53,13.56,15.28,14.93,4.84,1.15,25.86,1.1,31.28.46,1.4-.16,2.47-.12,3.31-1.49v-13.9ZM343.79,379.74l-175.48.96c3.4,3.85,13.18,14.55,17.79,15.28l141.35-.46,16.34-15.77ZM455.93,84.43l.09,87.73c-3.02,69.03-19.44,138.57-59.67,195.4-35.17,49.68-84.37,86.57-137.01,116.19-3.57,1.26-12.23-4.13-15.92-6.05-102.21-53.17-167.11-145.7-183.31-259.71-6.28-44.24-3.33-89.05-4-133.61,70.49-3.1,137.07-28.22,200.73-56.33,63.34,27.39,129.44,51.85,199.09,56.38ZM435.83,103.57c-62.75-7.25-121.71-29.22-179.73-52.72-57.16,24.9-116.25,46.14-178.79,52.81.01,39.32-1.76,78.2,3.89,117.21,15.67,108.22,78.57,189.56,173.74,240.63l1.58.19c49.76-26.66,93.61-62.47,125.83-109.08,25.33-36.64,41.11-82.27,48.39-126.13,6.78-40.84,5-81.63,5.09-122.91ZM298.72,173.57h-139.04l96.54-53.53,54.03,32.01,9.17-16.86-62.54-38.14c-46.47,24.38-91.58,51.22-137.01,77.44-3.93,4.32,3.45,12.88,3.48,18.15l165.32.1c1.24,0,1.64-.69,2.29-1.54,1.2-1.55,8.51-16.93,7.77-17.64ZM326.53,192.74h62.81c1.35-3.52,5.62-10.93,6.09-14.14.16-1.1.13-1.89-.73-2.7l-37.84-21.45-13.06,15.76c2.46,1.06,6.15,1.41,6.71,4.78-8.28,5.39-17.92,9.64-23.97,17.75ZM196.11,201.37h-61.37c-1.23,8.31,2.57,13.62,10.98,14.43,7.36.71,37.78,1.15,43.96-.25,6.65-1.5,7.1-8.53,6.43-14.18ZM287.21,201.37h-63.29c-.35,8.16,2.38,13.6,10.98,14.43,8.53.82,37.02,1.13,44.69-.47,7.83-1.64,8.15-6.89,7.62-13.96ZM378.31,201.37h-59.45l1.09,12.33c1.52.41,3.07,1.33,4.61,1.62,6.03,1.14,42.8,1.3,47.74-.31,6.6-2.14,6.36-7.72,6.01-13.64ZM262.28,278.09l15.34-18.7v-30.69l-1.44-1.44h-40.75l-.96,92.05c2.22.57,1.58-.42,2.19-1.2,4.94-6.32,14.11-20.28,14.11-28.03v-54.18h11.51v42.19ZM259.4,341.38h39.8l1.44-1.44v-78.15l-14.84,18.23c-.37.63.46,1.19.46,1.43v52.26h-11.51v-38.36c-2.25-.58-1.61.53-2.2,1.22-4.55,5.3-7.93,11.72-13.14,16.52v28.29ZM185.09,227.27h-40.27l-.48,115.07h42.19v-113.63l-1.44-1.44ZM171.18,334.66h-11.5s0-98.76,0-98.76h10.55v96.37c0,.3,1.32,1.36.96,2.39ZM368.24,227.27h-40.27l-1.44,1.44v112.67h42.19l-.48-114.11ZM353.38,333.71h-11.51c.42-25.39-.53-50.87-.04-76.28.14-7.05,2.3-14.41.04-21.52h11.51s0,97.8,0,97.8Z"/>
</svg>